<?xml version="1.0" standalone="no"?><!DOCTYPE svg PUBLIC "-//W3C//DTD SVG 1.1//EN" "http://www.w3.org/Graphics/SVG/1.1/DTD/svg11.dtd"><svg t="1540175449051" class="icon" style="" viewBox="0 0 1024 1024" version="1.1" xmlns="http://www.w3.org/2000/svg" p-id="9728" xmlns:xlink="http://www.w3.org/1999/xlink" width="200" height="200"><defs><style type="text/css"></style></defs><path d="M224 608q-40 0-68-28t-28-68 28-68 68-28 68 28 28 68-28 68-68 28zM512 608q-40 0-68-28t-28-68 28-68 68-28 68 28 28 68-28 68-68 28zM800 608q-40 0-68-28t-28-68 28-68 68-28 68 28 28 68-28 68-68 28z" p-id="9729" fill="#fff"></path></svg>